<?xml version="1.0" standalone="no"?>
<!DOCTYPE svg PUBLIC "-//W3C//DTD SVG 20010904//EN"
 "http://www.w3.org/TR/2001/REC-SVG-20010904/DTD/svg10.dtd">
<svg version="1.0" xmlns="http://www.w3.org/2000/svg"
 width="100.000000pt" height="100.000000pt" viewBox="0 0 100.000000 100.000000"
 preserveAspectRatio="xMidYMid meet">
<metadata>
Created by potrace 1.11, written by Peter Selinger 2001-2013
</metadata>
<g transform="translate(0.000000,100.000000) scale(0.100000,-0.100000)"
fill="#000000" stroke="none">
<path d="M90 595 l0 -395 22 0 c19 0 20 -2 6 -17 -28 -33 -29 -40 -3 -35 14 2
28 8 31 13 10 17 43 9 49 -11 6 -19 22 -25 54 -20 9 1 12 -4 8 -15 -4 -9 -1
-25 6 -36 10 -16 9 -21 -3 -29 -10 -6 -16 -5 -19 3 -6 18 -34 36 -46 29 -5 -3
-22 -5 -37 -4 -17 1 -31 -4 -37 -15 -9 -16 -12 -16 -21 -3 -7 12 -10 8 -10
-17 l0 -31 76 -4 c42 -2 78 1 81 5 2 4 14 5 26 2 12 -2 16 -2 10 1 -7 3 -13
10 -13 15 0 6 4 8 8 5 30 -18 42 73 31 247 -1 24 -5 28 -23 24 -11 -2 -32 -1
-46 3 -20 7 -17 8 20 9 l46 1 -4 115 -4 115 24 -1 c12 0 41 -7 63 -14 l40 -13
-42 5 c-24 3 -43 3 -43 0 0 -18 53 -144 66 -158 9 -10 13 -22 10 -27 -3 -5 1
-18 9 -28 8 -10 15 -26 15 -35 0 -9 6 -22 14 -29 8 -6 13 -17 10 -25 -4 -9 7
-14 35 -17 39 -3 55 5 29 15 -8 4 -7 6 3 6 21 1 29 22 22 51 -4 17 -2 21 8 18
21 -7 39 23 28 45 -7 12 -6 16 2 15 6 -2 14 4 16 12 3 9 1 11 -4 5 -4 -6 -21
-8 -38 -4 -29 6 -29 7 -4 8 42 2 77 37 94 93 8 28 22 62 30 75 13 20 13 23 1
23 -8 0 -18 5 -22 11 -5 9 1 10 21 5 18 -5 31 -3 35 4 5 8 13 0 21 -19 8 -17
16 -31 19 -31 3 0 6 -23 6 -51 1 -51 -14 -56 -18 -6 -4 52 -21 8 -23 -64 -2
-39 1 -66 5 -59 5 8 9 7 13 -4 4 -10 1 -16 -9 -16 -12 0 -15 -14 -14 -72 0
-40 -3 -117 -6 -171 -6 -93 -6 -97 14 -97 29 0 53 11 47 21 -3 4 -13 5 -23 2
-22 -8 -13 1 16 16 20 11 23 9 32 -14 9 -24 14 -26 62 -23 l53 3 0 390 0 390
-25 12 c-16 7 -19 12 -9 12 9 1 19 10 22 21 5 19 3 19 -30 5 -44 -19 -44 -19
-36 3 5 14 3 13 -10 -3 -16 -20 -16 -20 -17 3 0 17 -6 22 -26 22 -21 0 -25 -4
-21 -19 3 -14 1 -18 -10 -14 -10 4 -14 19 -12 52 3 62 6 65 37 40 15 -11 28
-16 30 -10 2 5 18 7 37 4 28 -4 34 -2 40 17 5 16 10 19 15 10 5 -9 9 -8 13 3
10 27 -9 33 -113 33 l-105 -1 -15 -45 c-8 -25 -18 -47 -21 -50 -4 -3 -10 -16
-14 -30 -4 -14 -16 -45 -27 -69 -22 -50 -16 -60 35 -55 23 3 28 1 17 -6 -9 -5
-28 -7 -42 -6 -15 2 -31 0 -35 -3 -5 -3 -24 -48 -42 -98 -19 -51 -38 -93 -43
-93 -5 0 -16 16 -24 36 -11 26 -19 34 -31 30 -13 -5 -13 -4 -4 7 18 23 -29
139 -63 152 -27 11 -26 28 0 18 8 -3 14 0 14 6 0 7 -7 14 -15 17 -8 4 -15 16
-15 27 0 12 -12 56 -27 99 -28 78 -28 78 -63 77 -24 -1 -28 -3 -12 -6 18 -4
22 -9 16 -26 -9 -30 -12 -33 -26 -19 -7 7 -20 12 -30 12 -16 0 -23 11 -19 33
0 4 -26 7 -59 7 l-60 0 0 -395z m40 354 c0 -10 -4 -19 -10 -19 -5 0 -10 12
-10 26 0 14 4 23 10 19 6 -3 10 -15 10 -26z m102 -91 c-2 -12 5 -15 28 -12 16
2 30 0 30 -4 0 -5 -15 -7 -32 -6 -47 2 -47 2 -45 24 1 11 6 19 12 17 5 -2 9
-11 7 -19z m535 -70 c-3 -8 -6 -5 -6 6 -1 11 2 17 5 13 3 -3 4 -12 1 -19z m45
0 c-6 -6 -15 -8 -19 -4 -4 4 -1 11 7 16 19 12 27 3 12 -12z m48 2 c0 -5 -4
-10 -10 -10 -5 0 -10 5 -10 10 0 6 5 10 10 10 6 0 10 -4 10 -10z m20 -35 c-7
-8 -18 -15 -24 -15 -6 0 -2 7 8 15 25 19 32 19 16 0z m-510 -25 c12 -8 9 -9
-12 -8 -15 1 -24 6 -22 10 7 10 16 10 34 -2z m410 -44 c0 -11 -19 -15 -25 -6
-3 5 1 10 9 10 9 0 16 -2 16 -4z m-427 -47 c-6 -21 -11 -28 -15 -19 -6 17 9
66 18 58 3 -3 1 -21 -3 -39z m381 7 c2 -14 -1 -26 -5 -26 -5 0 -9 14 -9 32 0
36 10 32 14 -6z m-441 -6 c3 -11 1 -20 -4 -20 -5 0 -9 9 -9 20 0 11 2 20 4 20
2 0 6 -9 9 -20z m-103 0 c0 -5 -5 -10 -11 -10 -5 0 -7 5 -4 10 3 6 8 10 11 10
2 0 4 -4 4 -10z m598 -88 c7 -40 7 -50 -2 -42 -7 5 -13 31 -15 57 -3 60 4 54
17 -15z m87 27 c8 -23 1 -34 -14 -24 -13 8 -15 45 -2 45 5 0 13 -9 16 -21z
m-456 -4 c2 -3 -14 -5 -37 -5 -23 0 -45 0 -49 -1 -4 0 -9 4 -11 9 -3 9 87 6
97 -3z m-211 -26 c-3 -8 -7 -3 -11 10 -4 17 -3 21 5 13 5 -5 8 -16 6 -23z
m619 -1 c-3 -7 -5 -2 -5 12 0 14 2 19 5 13 2 -7 2 -19 0 -25z m-257 8 c0 -3
-4 -8 -10 -11 -5 -3 -10 -1 -10 4 0 6 5 11 10 11 6 0 10 -2 10 -4z m50 -21
c-7 -9 -15 -13 -19 -10 -3 3 1 10 9 15 21 14 24 12 10 -5z m-430 -107 c0 -18
-2 -20 -9 -8 -6 8 -7 18 -5 22 9 14 14 9 14 -14z m-37 -13 c5 -31 -13 -28 -24
3 -6 16 -5 22 5 22 8 0 16 -11 19 -25z m405 3 c-6 -18 -28 -21 -28 -4 0 9 7
16 16 16 9 0 14 -5 12 -12z m242 -62 c0 -3 -4 -8 -10 -11 -5 -3 -10 -1 -10 4
0 6 5 11 10 11 6 0 10 -2 10 -4z m-18 -165 c-3 -8 -10 0 -17 20 -6 19 -9 38
-7 43 7 13 30 -47 24 -63z m-632 50 c0 -5 -7 -12 -16 -15 -24 -9 -28 -7 -14 9
14 17 30 20 30 6z m15 -41 c-3 -5 -11 -10 -16 -10 -6 0 -7 5 -4 10 3 6 11 10
16 10 6 0 7 -4 4 -10z m55 5 c0 -2 -10 -10 -22 -16 -21 -11 -22 -11 -9 4 13
16 31 23 31 12z m576 -48 c3 -8 0 -25 -5 -39 -5 -14 -6 -30 -3 -34 4 -5 0 -1
-10 8 -9 10 -15 26 -13 36 2 9 4 23 4 30 1 16 20 16 27 -1z m102 -123 c2 -16
-1 -23 -8 -19 -5 3 -10 18 -10 32 0 32 13 22 18 -13z"/>
<path d="M815 880 c-3 -5 -1 -10 4 -10 6 0 11 5 11 10 0 6 -2 10 -4 10 -3 0
-8 -4 -11 -10z"/>
<path d="M850 870 c0 -5 5 -10 10 -10 6 0 10 5 10 10 0 6 -4 10 -10 10 -5 0
-10 -4 -10 -10z"/>
<path d="M140 120 c0 -5 5 -10 10 -10 6 0 10 5 10 10 0 6 -4 10 -10 10 -5 0
-10 -4 -10 -10z"/>
</g>
</svg>
