<?xml version="1.0" standalone="no"?>
<!DOCTYPE svg PUBLIC "-//W3C//DTD SVG 20010904//EN"
 "http://www.w3.org/TR/2001/REC-SVG-20010904/DTD/svg10.dtd">
<svg version="1.0" xmlns="http://www.w3.org/2000/svg"
 width="1472.000000pt" height="1472.000000pt" viewBox="0 0 1472.000000 1472.000000"
 preserveAspectRatio="xMidYMid meet">
<metadata>
Created by potrace 1.11, written by Peter Selinger 2001-2013
</metadata>
<g transform="translate(0.000000,1472.000000) scale(0.100000,-0.100000)"
fill="#000000" stroke="none">
<path d="M1819 11196 c-2 -2 -26 -6 -54 -10 -172 -22 -320 -64 -483 -137 -35
-16 -68 -29 -73 -29 -5 0 -9 -4 -9 -10 0 -5 -6 -10 -13 -10 -7 0 -36 -16 -66
-35 -29 -19 -55 -35 -57 -35 -11 0 -125 -89 -199 -154 -78 -70 -130 -123 -170
-174 -11 -14 -32 -40 -47 -58 -16 -17 -28 -36 -28 -42 0 -6 -4 -12 -9 -14 -12
-5 -102 -153 -135 -223 -28 -60 -80 -181 -86 -200 -5 -18 -12 -40 -17 -55 -3
-8 -7 -22 -8 -30 -1 -8 -6 -31 -10 -50 -5 -19 -10 -38 -11 -42 -1 -5 -3 -9 -4
-10 -3 -4 -11 -65 -13 -105 -1 -18 -4 -33 -7 -33 -12 0 -13 -240 -13 -2400 0
-2059 2 -2356 17 -2400 3 -8 7 -33 10 -55 11 -83 91 -346 108 -353 5 -2 8 -8
8 -13 0 -47 190 -351 269 -430 9 -9 37 -38 62 -65 26 -27 68 -67 94 -89 26
-22 55 -47 64 -55 56 -51 352 -228 388 -231 5 -1 22 -6 38 -13 30 -13 103 -39
118 -42 4 -1 8 -2 10 -4 1 -1 9 -3 17 -5 8 -1 42 -10 75 -18 33 -8 80 -18 105
-22 25 -4 54 -10 65 -14 35 -11 11397 -12 11410 -1 6 5 14 7 18 4 3 -3 29 -1
59 5 29 6 69 13 88 15 63 8 239 65 341 111 392 177 710 503 864 887 44 110 48
120 51 138 2 8 12 45 22 81 11 36 23 85 27 110 4 24 9 55 11 69 15 89 17 412
17 2405 0 2026 -3 2349 -18 2425 -2 14 -7 36 -10 50 -2 14 -7 40 -10 59 -3 19
-11 43 -17 55 -6 11 -10 22 -9 24 13 14 -76 245 -136 355 -46 83 -134 215
-182 271 -60 72 -211 215 -276 264 -38 28 -75 56 -82 62 -7 5 -15 10 -17 10
-3 0 -30 16 -60 35 -49 31 -134 74 -236 118 -36 16 -194 65 -231 72 -11 2 -28
6 -37 9 -9 3 -35 8 -57 11 -22 4 -51 9 -65 13 -27 6 -11394 15 -11401 8z
m7644 -2936 c0 -965 -3 -1786 -7 -1825 -11 -124 -15 -152 -36 -237 -11 -45
-23 -92 -25 -104 -3 -11 -16 -50 -29 -87 -13 -36 -21 -68 -18 -71 3 -3 0 -6
-6 -6 -7 0 -12 -5 -12 -12 0 -16 -91 -202 -102 -206 -4 -2 -8 -8 -8 -13 0 -8
-40 -74 -63 -104 -4 -5 -24 -32 -44 -60 -64 -85 -172 -199 -264 -278 -55 -48
-234 -169 -277 -188 -18 -7 -32 -17 -32 -21 0 -5 -6 -8 -13 -8 -7 0 -28 -8
-47 -19 -36 -19 -222 -91 -250 -96 -8 -2 -42 -10 -75 -18 -129 -33 -249 -48
-400 -50 -87 -1 -263 10 -274 17 -3 2 -22 7 -41 10 -19 3 -46 8 -60 11 -14 3
-34 7 -45 9 -92 19 -386 131 -405 155 -3 3 -25 17 -50 30 -25 13 -56 33 -69
43 -13 10 -30 18 -37 18 -8 0 -14 4 -14 9 0 4 -17 20 -37 34 -71 47 -218 183
-298 277 -33 38 -135 177 -135 184 0 2 -17 33 -38 67 -21 35 -45 80 -54 99
-49 108 -59 134 -84 206 -27 80 -33 104 -39 139 -2 11 -4 21 -5 23 -6 7 -27
125 -36 207 -13 113 -7 367 11 448 2 12 6 36 9 52 7 54 45 188 77 275 17 47
33 93 36 103 3 9 9 17 14 17 5 0 9 7 9 16 0 29 90 182 179 304 51 70 207 234
276 290 59 49 145 110 154 110 5 0 11 4 13 8 12 31 343 186 441 207 10 2 28 7
40 11 12 4 31 9 42 10 11 2 43 8 70 15 28 6 66 13 85 15 19 2 53 6 75 10 85
12 355 6 431 -10 12 -2 39 -7 60 -10 81 -13 110 -19 125 -27 9 -4 27 -10 40
-13 116 -21 321 -117 482 -224 61 -40 112 -71 114 -68 2 2 4 468 4 1036 0 568
1 1035 3 1039 2 3 147 6 322 6 l318 -1 -1 -1754z m-5473 26 c132 -15 276 -49
399 -93 123 -44 351 -158 351 -175 0 -5 5 -8 11 -8 15 0 160 -112 234 -182 74
-69 205 -220 205 -237 0 -6 5 -11 10 -11 6 0 16 -12 23 -27 6 -16 14 -30 17
-33 27 -23 94 -146 142 -260 76 -179 111 -311 135 -510 4 -36 7 -477 8 -980
l0 -915 -320 0 -320 0 0 188 c0 164 -4 209 -17 179 -1 -4 -39 -31 -83 -60 -44
-29 -85 -57 -92 -62 -7 -6 -16 -10 -21 -10 -5 0 -15 -7 -22 -15 -7 -8 -18 -15
-25 -15 -7 0 -34 -12 -61 -27 -27 -15 -58 -29 -68 -30 -11 -2 -29 -11 -39 -21
-11 -9 -21 -16 -23 -14 -3 2 -42 -9 -87 -24 -45 -16 -85 -27 -89 -26 -4 1 -25
-5 -47 -13 -23 -8 -41 -12 -41 -9 0 3 -6 2 -12 -2 -7 -5 -19 -9 -28 -9 -8 -1
-37 -5 -65 -9 -126 -16 -157 -19 -265 -19 -117 0 -162 4 -282 24 -81 13 -103
17 -103 19 0 1 -9 3 -20 5 -57 11 -200 60 -280 96 -27 13 -55 24 -60 25 -16 3
-220 126 -223 136 -2 4 -8 8 -14 8 -28 0 -250 202 -328 299 -19 24 -39 48 -45
55 -51 57 -148 218 -199 328 -82 178 -130 353 -152 558 -6 57 -6 294 0 338 3
18 8 52 11 75 12 85 16 104 41 197 29 109 50 170 90 255 15 33 28 62 29 65 5
16 31 66 36 70 3 3 17 26 32 51 76 137 236 325 377 441 51 42 185 135 240 167
146 85 400 177 539 196 40 6 76 13 76 15 0 1 38 4 85 7 47 2 86 6 87 7 4 4
205 -2 253 -8z m6566 -6 c6 -8 19 -37 29 -65 9 -27 23 -64 31 -80 22 -51 37
-89 39 -101 2 -5 14 -36 29 -67 14 -32 26 -63 26 -70 0 -7 4 -17 8 -23 4 -5
18 -36 31 -69 45 -117 83 -211 102 -252 10 -24 19 -47 19 -52 0 -5 14 -40 31
-78 17 -37 31 -70 31 -73 0 -6 -1 -1 63 -165 26 -66 50 -124 53 -130 4 -5 7
-12 8 -15 1 -7 14 -42 25 -65 4 -11 21 -54 37 -95 16 -41 33 -84 37 -95 5 -11
9 -22 10 -25 1 -3 7 -18 13 -33 7 -16 12 -30 12 -32 0 -3 11 -29 25 -59 14
-30 25 -59 25 -64 0 -5 6 -22 14 -38 8 -16 40 -94 71 -174 31 -80 63 -158 70
-175 7 -16 22 -55 34 -85 12 -30 26 -64 31 -75 4 -11 23 -58 41 -105 18 -47
36 -90 40 -96 5 -6 10 -19 12 -30 7 -48 36 -68 43 -31 2 11 102 266 123 312
30 68 53 126 56 145 0 3 6 15 13 28 7 12 10 22 6 22 -3 0 -2 6 4 13 5 6 22 44
37 82 15 39 35 89 46 112 10 24 19 45 19 47 0 3 5 17 12 33 6 15 12 30 13 33
1 3 7 18 13 33 7 16 12 30 12 33 0 2 8 23 19 47 34 76 61 149 61 163 0 8 5 14
10 14 6 0 10 7 10 15 0 8 4 23 9 33 5 9 38 89 72 177 34 88 72 183 84 210 12
28 28 68 35 90 7 22 16 45 20 50 5 6 8 12 8 15 1 3 6 19 13 35 7 17 13 32 14
35 1 3 7 18 13 33 7 16 12 31 12 35 1 4 9 25 20 47 11 22 19 48 20 58 0 9 5
17 10 17 6 0 10 6 10 13 0 10 82 223 155 402 5 11 9 22 10 25 1 3 6 16 12 30
6 14 17 41 25 60 l15 35 344 -1 c189 -1 345 -2 346 -3 0 0 -14 -37 -33 -81
-18 -44 -34 -82 -34 -85 0 -3 -7 -22 -16 -43 -8 -20 -24 -59 -35 -87 -11 -27
-23 -59 -28 -70 -20 -47 -74 -181 -76 -190 -1 -5 -7 -21 -13 -35 -5 -14 -42
-106 -81 -205 -40 -99 -76 -189 -80 -200 -39 -91 -61 -149 -61 -161 0 -8 -4
-14 -8 -14 -5 0 -9 -6 -9 -12 -1 -11 -168 -439 -193 -493 -24 -52 -80 -200
-80 -212 0 -7 -4 -13 -10 -13 -5 0 -10 -6 -10 -14 0 -8 -5 -27 -12 -43 -6 -15
-12 -30 -13 -33 -1 -3 -6 -16 -12 -30 -6 -14 -35 -86 -64 -160 -29 -74 -55
-137 -58 -140 -3 -3 -7 -12 -9 -20 -2 -13 -38 -108 -62 -165 -5 -11 -24 -58
-43 -105 -19 -47 -38 -94 -42 -105 -4 -11 -9 -25 -10 -31 -2 -6 -10 -27 -18
-45 -28 -63 -109 -264 -111 -276 -1 -7 -5 -16 -9 -19 -4 -4 -7 -16 -7 -26 0
-10 -4 -18 -10 -18 -5 0 -9 -3 -8 -7 1 -5 -21 -67 -50 -140 -29 -73 -52 -137
-52 -143 0 -5 -10 -11 -22 -11 -73 -4 -671 -3 -678 1 -4 3 -42 93 -85 200 -42
107 -83 209 -90 225 -7 17 -25 62 -40 100 -15 39 -33 84 -40 100 -57 138 -85
211 -85 217 0 4 -12 33 -26 65 -32 70 -29 65 -98 238 -30 77 -61 154 -67 170
-7 17 -13 32 -14 35 -1 3 -9 22 -18 44 -9 21 -17 40 -17 43 0 3 -74 186 -105
258 -7 17 -16 41 -20 55 -4 14 -16 43 -26 65 -10 22 -34 83 -55 135 -20 52
-44 113 -54 135 -10 22 -27 66 -39 99 -12 32 -30 77 -40 100 -9 22 -26 61 -35
86 -10 25 -22 54 -27 65 -4 11 -27 67 -49 125 -23 58 -46 116 -52 130 -16 38
-23 56 -69 170 -22 58 -45 114 -49 125 -4 11 -15 36 -24 57 -9 20 -16 38 -16
41 0 2 -8 22 -17 43 -9 22 -17 41 -18 44 -1 3 -7 19 -14 35 -6 17 -23 59 -38
95 -14 36 -31 78 -39 95 -7 16 -11 32 -9 35 2 3 156 5 342 5 292 0 340 -2 349
-15z"/>
<path d="M7757 7654 c-1 -1 -33 -4 -72 -5 -126 -5 -294 -47 -405 -103 -58 -29
-143 -77 -150 -86 -3 -3 -22 -18 -43 -33 -53 -40 -159 -145 -193 -192 -16 -22
-31 -42 -34 -45 -11 -10 -65 -106 -93 -164 -28 -59 -63 -161 -72 -206 -3 -14
-7 -38 -11 -53 -3 -16 -8 -41 -10 -55 -5 -38 -5 -232 -1 -262 3 -14 8 -45 12
-70 3 -24 9 -48 12 -53 3 -4 7 -22 10 -39 2 -16 13 -50 24 -75 10 -24 19 -51
19 -59 0 -8 5 -14 10 -14 6 0 9 -3 8 -7 -3 -12 54 -123 64 -123 4 0 8 -5 8
-12 0 -35 152 -200 258 -281 57 -43 197 -127 212 -127 4 0 25 -8 46 -17 43
-18 38 -17 114 -38 84 -23 144 -30 275 -30 156 0 247 15 375 62 58 22 194 93
198 104 2 5 9 9 15 9 14 0 77 49 145 112 97 89 187 213 243 333 31 67 69 181
73 217 1 13 4 28 7 33 10 19 14 80 14 200 0 124 -4 165 -25 250 -6 28 -13 57
-15 65 -2 8 -20 56 -42 105 -82 190 -208 346 -378 465 -86 61 -249 138 -328
155 -10 2 -27 7 -37 10 -22 7 -229 33 -233 29z"/>
<path d="M3828 7655 c-1 -1 -46 -5 -98 -8 -103 -7 -204 -26 -263 -51 -20 -8
-37 -12 -37 -9 0 3 -11 -2 -25 -11 -13 -9 -31 -16 -38 -16 -8 0 -20 -6 -26
-14 -7 -8 -24 -17 -39 -21 -15 -4 -29 -10 -32 -13 -3 -4 -36 -28 -75 -54 -132
-89 -301 -276 -329 -366 -4 -12 -12 -22 -17 -22 -5 0 -9 -6 -9 -12 0 -7 -7
-26 -15 -42 -18 -34 -62 -161 -70 -203 -18 -89 -20 -120 -18 -243 2 -157 1
-146 20 -230 18 -79 18 -80 27 -105 5 -11 12 -32 18 -47 6 -15 9 -30 8 -34 -1
-4 2 -10 7 -13 4 -3 18 -26 30 -51 32 -63 66 -123 79 -135 5 -5 22 -26 36 -45
142 -195 419 -357 678 -398 57 -9 281 -9 340 0 165 25 373 120 509 233 63 52
181 178 181 194 0 4 9 16 19 25 21 19 130 229 136 261 2 11 4 21 5 23 2 1 4 7
5 12 1 6 3 11 5 13 1 1 3 10 5 21 2 10 8 39 14 65 33 140 31 306 -6 456 -7 33
-15 65 -17 72 -1 7 -5 16 -9 19 -4 4 -7 17 -7 28 0 12 -9 36 -20 54 -11 17
-18 32 -15 32 2 0 -10 26 -27 58 -108 199 -280 365 -478 462 -61 30 -131 59
-160 65 -3 1 -23 6 -45 13 -49 13 -94 21 -165 28 -30 2 -60 7 -67 9 -6 2 -13
2 -15 0z"/>
</g>
</svg>
