<svg width="59" height="51" viewBox="0 0 59 51" fill="none" xmlns="http://www.w3.org/2000/svg">
<path d="M55.8476 25.9953C57.4624 16.3178 50.9263 7.16358 41.2488 5.54876L27.3074 3.22244C16.7069 1.45359 6.72298 8.74193 5.17763 19.3773V19.3773C3.46006 31.198 12.852 41.6948 24.7901 41.2971L38.9164 40.8265C47.3716 40.5448 54.4552 34.3398 55.8476 25.9953V25.9953Z" fill="#FBFF23"/>
<path fill-rule="evenodd" clip-rule="evenodd" d="M4.53178 20.7586L16.0019 17.6416L16.0036 17.6411C16.1384 17.6029 16.1895 17.5399 16.2126 17.4939C16.2409 17.4378 16.2504 17.3585 16.2263 17.2734C16.2023 17.1884 16.1526 17.1252 16.0985 17.0916C16.0538 17.0638 15.9762 17.0366 15.8401 17.0748L15.8339 17.0766L4.36346 20.1348C4.23506 20.1715 4.18339 20.2335 4.15801 20.2855C4.12704 20.349 4.11667 20.4396 4.14295 20.5363C4.16926 20.6331 4.22336 20.7034 4.2791 20.7398C4.32402 20.7692 4.39765 20.7962 4.52786 20.7596L4.53178 20.7586ZM4.23108 19.6526C3.18238 19.9468 3.61419 21.5352 4.6629 21.2411L16.1369 18.123C17.1856 17.8288 16.7538 16.2992 15.7051 16.5934L4.23108 19.6526ZM4.29277 23.712C3.24406 23.8885 3.49082 25.4769 4.60121 25.3004L16.0752 23.359C17.1239 23.1825 16.8772 21.5941 15.7668 21.7705L4.29277 23.712ZM15.8474 22.264L15.8453 22.2644L4.37618 24.205C4.24865 24.2264 4.19407 24.2802 4.16625 24.3247C4.13211 24.3792 4.11388 24.461 4.12986 24.5525C4.14574 24.6434 4.19037 24.715 4.2443 24.757C4.28965 24.7923 4.37066 24.8303 4.52047 24.807L4.52272 24.8066L15.9918 22.866C16.1193 22.8445 16.1739 22.7908 16.2018 22.7463C16.2359 22.6917 16.2541 22.6099 16.2381 22.5185C16.2223 22.4276 16.1776 22.356 16.1237 22.314C16.0783 22.2786 15.9973 22.2407 15.8474 22.264ZM4.35445 27.7125C3.24406 27.8302 3.42913 29.4186 4.53952 29.301L16.0135 28.0067C17.1239 27.889 16.9389 26.3006 15.8285 26.4182L4.35445 27.7125ZM15.8825 26.9153L15.8812 26.9154L4.40714 28.2097C4.25665 28.2257 4.19154 28.2828 4.16027 28.3249C4.1228 28.3754 4.10077 28.4507 4.11084 28.5371C4.12089 28.6234 4.16015 28.6953 4.21192 28.7398C4.256 28.7777 4.33581 28.8194 4.48547 28.8039L4.48683 28.8037L15.9609 27.5094C16.1113 27.4935 16.1765 27.4364 16.2077 27.3943C16.2452 27.3438 16.2672 27.2685 16.2572 27.1821C16.2471 27.0957 16.2078 27.0239 16.1561 26.9794C16.112 26.9415 16.0322 26.8997 15.8825 26.9153ZM29.3447 13.3562V35.0369H20.6337V10.299L29.3447 13.3562ZM29.8934 12.4164L20.6402 9.06298C20.4551 9.00415 20.1467 9.00415 19.8999 9.12181L16.7538 10.4161V6.18025L26.8707 1.94439L37.0493 6.18025V34.5369H30.5103V13.1812C30.5103 12.8282 30.2635 12.4752 29.8934 12.4164ZM29.7679 12.9027L20.4826 9.53769C20.4552 9.53022 20.3973 9.52116 20.3212 9.52543C20.241 9.52993 20.1683 9.54776 20.1151 9.57313L20.1028 9.57901L16.2538 11.1625V5.84754L26.8701 1.40258L37.5493 5.84676V35.0369H30.0103V13.1812C30.0103 13.1181 29.987 13.0485 29.945 12.9942C29.9049 12.9423 29.8588 12.9171 29.8149 12.9102L29.7679 12.9027ZM1.50357 17.2987L1.4832 17.3052C1.27771 17.3705 1.21484 17.5002 1.21484 17.5935V35.3606C1.21484 35.4357 1.2481 35.5127 1.3209 35.5788C1.397 35.6479 1.49498 35.6842 1.57848 35.6842H38.2148V5.45597L26.8712 0.779312L15.5882 5.4553V11.456L1.50357 17.2987ZM15.0882 5.12128L26.8707 0.238281L38.7148 5.12128V36.1842H1.57848C1.14666 36.1842 0.714844 35.8312 0.714844 35.3606V17.5935C0.714844 17.2405 0.961597 16.9464 1.33173 16.8287L15.0882 11.1221V5.12128ZM19.9681 10.3146V35.0369H1.94212V17.7891L19.9681 10.3146ZM33.5025 8.50144C33.456 8.53946 33.4161 8.59625 33.4161 8.70999V12.181C33.4161 12.2948 33.456 12.3516 33.5025 12.3896C33.5611 12.4375 33.6597 12.4753 33.7798 12.4753C33.8999 12.4753 33.9985 12.4375 34.0571 12.3896C34.1036 12.3516 34.1434 12.2948 34.1434 12.181V8.70999C34.1434 8.59625 34.1036 8.53946 34.0571 8.50144C33.9985 8.45356 33.8999 8.41577 33.7798 8.41577C33.6597 8.41577 33.5611 8.45356 33.5025 8.50144ZM33.5025 14.9141C33.456 14.9521 33.4161 15.0089 33.4161 15.1226V18.5937C33.4161 18.7074 33.456 18.7642 33.5025 18.8022C33.5611 18.8501 33.6597 18.8879 33.7798 18.8879C33.8999 18.8879 33.9985 18.8501 34.0571 18.8022C34.1036 18.7642 34.1434 18.7074 34.1434 18.5937V15.1226C34.1434 15.0089 34.1036 14.9521 34.0571 14.9141C33.9985 14.8662 33.8999 14.8284 33.7798 14.8284C33.6597 14.8284 33.5611 14.8662 33.5025 14.9141ZM33.5025 21.2678C33.456 21.3059 33.4161 21.3626 33.4161 21.4764V24.9474C33.4161 25.0612 33.456 25.118 33.5025 25.156C33.5611 25.2039 33.6597 25.2417 33.7798 25.2417C33.8999 25.2417 33.9985 25.2039 34.0571 25.156C34.1036 25.118 34.1434 25.0612 34.1434 24.9474V21.4764C34.1434 21.3626 34.1036 21.3059 34.0571 21.2678C33.9985 21.22 33.8999 21.1822 33.7798 21.1822C33.6597 21.1822 33.5611 21.22 33.5025 21.2678ZM33.5025 27.6805C33.456 27.7185 33.4161 27.7753 33.4161 27.889V31.3601C33.4161 31.4738 33.456 31.5306 33.5025 31.5686C33.5611 31.6165 33.6597 31.6543 33.7798 31.6543C33.8999 31.6543 33.9985 31.6165 34.0571 31.5686C34.1036 31.5306 34.1434 31.4738 34.1434 31.3601V27.889C34.1434 27.7753 34.1036 27.7185 34.0571 27.6805C33.9985 27.6326 33.8999 27.5948 33.7798 27.5948C33.6597 27.5948 33.5611 27.6326 33.5025 27.6805ZM4.219 32.7712C4.25592 32.8108 4.32785 32.8603 4.47783 32.8603H15.8902C16.0401 32.8603 16.1121 32.8108 16.149 32.7712C16.1928 32.7242 16.223 32.6515 16.223 32.5661C16.223 32.4807 16.1928 32.408 16.149 32.361C16.1121 32.3214 16.0401 32.2719 15.8902 32.2719H4.47783C4.32785 32.2719 4.25592 32.3214 4.219 32.361C4.17518 32.408 4.14504 32.4807 4.14504 32.5661C4.14504 32.6515 4.17518 32.7242 4.219 32.7712ZM21.1337 11.0044V34.5369H28.8447V13.7107L21.1337 11.0044ZM2.44212 18.123V34.5369H19.4681V11.0632L2.44212 18.123ZM34.6434 8.70999C34.6434 7.65103 32.9161 7.65103 32.9161 8.70999V12.181C32.9161 13.24 34.6434 13.24 34.6434 12.181V8.70999ZM34.6434 15.1226C34.6434 14.0636 32.9161 14.0636 32.9161 15.1226V18.5937C32.9161 19.6526 34.6434 19.6526 34.6434 18.5937V15.1226ZM34.6434 21.4764C34.6434 20.4174 32.9161 20.4174 32.9161 21.4764V24.9474C32.9161 26.0064 34.6434 26.0064 34.6434 24.9474V21.4764ZM34.6434 27.889C34.6434 26.83 32.9161 26.83 32.9161 27.889V31.3601C32.9161 32.419 34.6434 32.419 34.6434 31.3601V27.889ZM4.47783 31.7719C3.36744 31.7719 3.36744 33.3603 4.47783 33.3603H15.8902C17.0006 33.3603 17.0006 31.7719 15.8902 31.7719H4.47783Z" fill="#56545A"/>
</svg>
