<svg width="58" height="51" viewBox="0 0 58 51" fill="none" xmlns="http://www.w3.org/2000/svg">
<path d="M54.8482 25.9958C56.463 16.3183 49.9269 7.16407 40.2494 5.54924L26.3081 3.22293C15.7075 1.45408 5.72359 8.74242 4.17824 19.3778V19.3778C2.46067 31.1985 11.8526 41.6953 23.7907 41.2976L37.917 40.827C46.3722 40.5453 53.4558 34.3403 54.8482 25.9958V25.9958Z" fill="#FFE3B8"/>
<path fill-rule="evenodd" clip-rule="evenodd" d="M39.9178 3.23877C39.7886 3.23877 39.666 3.26881 39.5504 3.34298C39.4348 3.41738 39.3099 3.56607 39.3099 3.76281V32.7148C39.3099 32.9119 39.435 33.0616 39.5504 33.1359C39.6658 33.2103 39.7884 33.2388 39.9178 33.2388H45.1074C45.2366 33.2388 45.3607 33.2102 45.4763 33.1359C45.5919 33.0615 45.7153 32.9116 45.7153 32.7148V3.76281C45.7153 3.56674 45.5907 3.4173 45.4748 3.34298C45.3589 3.26858 45.2361 3.23877 45.1074 3.23877H39.9178ZM40.0654 3.99027H44.9598V32.4873H40.0654V3.99027ZM32.2699 9.04241C32.1407 9.04241 32.0166 9.07245 31.901 9.14663C31.7855 9.22103 31.662 9.36959 31.662 9.56641V32.7148C31.662 32.9119 31.7856 33.0616 31.901 33.1359C32.0164 33.2103 32.1405 33.2388 32.2699 33.2388H37.4595C37.5887 33.2388 37.7114 33.2102 37.8269 33.1359C37.9425 33.0615 38.0674 32.9116 38.0674 32.7148V9.56641C38.0674 9.37042 37.9428 9.22095 37.8269 9.14663C37.711 9.07223 37.5882 9.04241 37.4595 9.04241H32.2699ZM32.4175 9.79392H37.3119V32.4873H32.4175V9.79392ZM24.6205 13.3429C24.4913 13.3429 24.3687 13.373 24.2531 13.4472C24.1376 13.5216 24.0126 13.6702 24.0126 13.867V32.7148C24.0126 32.9119 24.1377 33.0616 24.2531 33.1359C24.3686 33.2103 24.4911 33.2388 24.6205 33.2388H29.8116C29.9408 33.2388 30.0635 33.2102 30.179 33.1359C30.2946 33.0615 30.4195 32.9116 30.4195 32.7148V13.867C30.4195 13.671 30.2949 13.5215 30.179 13.4472C30.0631 13.3728 29.9403 13.3429 29.8116 13.3429H24.6205ZM24.7681 14.0944H29.664V32.4873H24.7681V14.0944ZM16.9726 17.6451C16.8435 17.6451 16.7193 17.6736 16.6037 17.7478C16.4882 17.8222 16.3647 17.9708 16.3647 18.1676V32.7148C16.3647 32.9119 16.4883 33.0616 16.6037 33.1359C16.7192 33.2103 16.8432 33.2388 16.9726 33.2388H22.1622C22.2914 33.2388 22.4156 33.2102 22.5311 33.1359C22.6467 33.0615 22.7702 32.9116 22.7702 32.7148V18.1676C22.7702 17.9715 22.6455 17.8221 22.5297 17.7478C22.4138 17.6734 22.2909 17.6451 22.1622 17.6451H16.9726ZM17.1202 18.3966H22.0147V32.4873H17.1202V18.3966ZM9.32327 20.4426C9.19409 20.4426 9.07141 20.4712 8.95585 20.5454C8.84029 20.6198 8.71533 20.7683 8.71533 20.9651V32.7148C8.71533 32.9119 8.84042 33.0616 8.95585 33.1359C9.07128 33.2103 9.19386 33.2388 9.32327 33.2388H14.5143C14.6435 33.2388 14.7662 33.2102 14.8818 33.1359C14.9973 33.0615 15.1223 32.9116 15.1223 32.7148V20.9651C15.1223 20.768 14.9972 20.6196 14.8818 20.5454C14.7663 20.471 14.6437 20.4426 14.5143 20.4426H9.32327ZM9.47083 21.1941H14.3668V32.4873H9.47083V21.1941Z" fill="#56545A"/>
</svg>
