<svg width="53" height="52" viewBox="0 0 53 52" fill="none" xmlns="http://www.w3.org/2000/svg">
<path d="M49.5262 27.0547C51.1577 17.2775 44.5543 8.02901 34.7771 6.39755L26.0238 4.93694C15.5724 3.19298 5.72438 10.3655 4.17778 20.848V20.848C2.42849 32.7041 11.9959 43.182 23.9618 42.5148L32.8223 42.0207C41.2055 41.5533 48.1443 35.3364 49.5262 27.0547V27.0547Z" fill="#95E8E3"/>
<path fill-rule="evenodd" clip-rule="evenodd" d="M8.0388 26.807L9.22281 27.9402C11.8643 30.4684 17.166 32.2474 23.5509 32.2474C29.9368 32.2474 35.2395 30.4684 37.881 27.9402L39.065 26.807V32.0263C39.065 33.0524 38.589 34.0278 37.8164 34.8848C37.0431 35.7427 35.9404 36.5213 34.5866 37.1779C31.8772 38.4921 28.0651 39.3654 23.5509 39.3654C19.0377 39.3654 15.226 38.4921 12.5169 37.1779C11.1633 36.5213 10.0605 35.7427 9.2873 34.8848C8.51481 34.0278 8.0388 33.0524 8.0388 32.0263V26.807ZM8.0388 19.0296L9.22281 20.1629C11.8643 22.6911 17.166 24.4701 23.5509 24.4701C29.9368 24.4701 35.2395 22.6911 37.881 20.1629L39.065 19.0296V24.249C39.065 25.2751 38.589 26.2504 37.8164 27.1075C37.0431 27.9654 35.9404 28.744 34.5866 29.4006C31.8772 30.7147 28.0651 31.5881 23.5509 31.5881C19.0377 31.5881 15.226 30.7147 12.5169 29.4006C11.1633 28.7439 10.0605 27.9654 9.2873 27.1075C8.51481 26.2504 8.0388 25.2751 8.0388 24.249V19.0296ZM8.0388 11.2544L9.22281 12.3876C11.8643 14.9158 17.166 16.6948 23.5509 16.6948C29.9368 16.6948 35.2395 14.9158 37.881 12.3876L39.065 11.2544V16.4727C39.065 17.4988 38.589 18.4741 37.8164 19.3312C37.0431 20.1891 35.9404 20.9676 34.5866 21.6243C31.8772 22.9384 28.0651 23.8118 23.5509 23.8118C19.0377 23.8118 15.226 22.9384 12.5169 21.6242C11.1633 20.9676 10.0605 20.1891 9.2873 19.3312C8.51481 18.4741 8.0388 17.4988 8.0388 16.4727V11.2544ZM11.9137 3.14168C8.97681 4.65882 7.4146 6.64804 7.4146 8.69741V32.0253C7.4146 34.0747 8.97681 36.0639 11.9137 37.581C14.8218 39.0833 18.9152 40.0227 23.5509 40.0227C28.1871 40.0227 32.281 39.0833 35.1895 37.581C38.1268 36.0639 39.6892 34.0746 39.6892 32.0253V8.69844C39.6892 6.64909 38.1267 4.6596 35.1894 3.14219C32.2809 1.63966 28.1871 0.7 23.5509 0.7C18.9152 0.7 14.8218 1.63941 11.9137 3.14168ZM9.4388 29.0543C12.4187 31.4159 17.5744 32.9474 23.5509 32.9474C29.5283 32.9474 34.685 31.4159 37.665 29.0543C37.9137 28.8571 38.1473 28.6542 38.365 28.4459V32.0263C38.365 35.2322 32.4128 38.6654 23.5509 38.6654C14.691 38.6654 8.7388 35.2322 8.7388 32.0263V28.4459C8.95644 28.6542 9.19004 28.8572 9.4388 29.0543ZM9.4388 21.277C12.4187 23.6385 17.5744 25.1701 23.5509 25.1701C29.5283 25.1701 34.685 23.6385 37.665 21.2769C37.9137 21.0798 38.1473 20.8769 38.365 20.6686V24.249C38.365 27.4548 32.4128 30.8881 23.5509 30.8881C14.691 30.8881 8.7388 27.4548 8.7388 24.249V20.6686C8.95644 20.8769 9.19004 21.0798 9.4388 21.277ZM9.4388 13.5017C12.4187 15.8633 17.5744 17.3948 23.5509 17.3948C29.5283 17.3948 34.685 15.8633 37.665 13.5017C37.9137 13.3045 38.1473 13.1016 38.365 12.8933V16.4727C38.365 19.6785 32.4128 23.1118 23.5509 23.1118C14.691 23.1118 8.7388 19.6785 8.7388 16.4727V12.8933C8.95644 13.1016 9.19004 13.3045 9.4388 13.5017ZM9.2873 11.5569C8.51481 10.6999 8.0388 9.72451 8.0388 8.69844C8.0388 7.67216 8.51477 6.69668 9.28728 5.83955C10.0605 4.98158 11.1633 4.20304 12.5169 3.5465C15.2261 2.23246 19.0377 1.35935 23.5509 1.35935C28.0645 1.35935 31.8767 2.23245 34.5862 3.54648C35.94 4.20302 37.0429 4.98155 37.8163 5.8395C38.5889 6.69663 39.065 7.67212 39.065 8.69844C39.065 9.72451 38.589 10.6999 37.8164 11.5569C37.0431 12.4148 35.9404 13.1934 34.5866 13.85C31.8772 15.1642 28.0651 16.0375 23.5509 16.0375C19.0377 16.0375 15.226 15.1642 12.5169 13.85C11.1633 13.1934 10.0605 12.4148 9.2873 11.5569ZM6.7146 8.69741C6.7146 3.82023 14.11 0 23.5509 0C32.9927 0 40.3892 3.82126 40.3892 8.69844V32.0253C40.3892 36.9025 32.9927 40.7227 23.5509 40.7227C14.11 40.7227 6.7146 36.9025 6.7146 32.0253V8.69741ZM8.7388 8.69844C8.7388 11.9043 14.691 15.3375 23.5509 15.3375C32.4128 15.3375 38.365 11.9043 38.365 8.69844C38.365 5.49158 32.4118 2.05935 23.5509 2.05935C14.691 2.05935 8.7388 5.49158 8.7388 8.69844Z" fill="#3D3D3D"/>
</svg>
