<svg width="53" height="52" viewBox="0 0 53 52" fill="none" xmlns="http://www.w3.org/2000/svg">
<path d="M2.95401 27.0547C1.32256 17.2775 7.92595 8.02901 17.7031 6.39755L26.4564 4.93694C36.9078 3.19298 46.7558 10.3655 48.3024 20.848V20.848C50.0517 32.7041 40.4843 43.182 28.5185 42.5148L19.6579 42.0207C11.2747 41.5533 4.33593 35.3364 2.95401 27.0547V27.0547Z" fill="#F3CED4"/>
<path fill-rule="evenodd" clip-rule="evenodd" d="M8.03904 26.807L9.22305 27.9402C11.8646 30.4684 17.1662 32.2474 23.5511 32.2474C29.9371 32.2474 35.2397 30.4684 37.8812 27.9402L39.0652 26.807V32.0263C39.0652 33.0524 38.5892 34.0278 37.8167 34.8848C37.0434 35.7427 35.9406 36.5213 34.5869 37.1779C31.8775 38.4921 28.0653 39.3654 23.5511 39.3654C19.0379 39.3654 15.2263 38.4921 12.5171 37.1779C11.1635 36.5213 10.0608 35.7427 9.28754 34.8848C8.51506 34.0278 8.03904 33.0524 8.03904 32.0263V26.807ZM8.03904 19.0296L9.22305 20.1629C11.8646 22.6911 17.1662 24.4701 23.5511 24.4701C29.9371 24.4701 35.2397 22.6911 37.8812 20.1629L39.0652 19.0296V24.249C39.0652 25.2751 38.5892 26.2504 37.8167 27.1075C37.0434 27.9654 35.9406 28.744 34.5869 29.4006C31.8775 30.7147 28.0653 31.5881 23.5511 31.5881C19.0379 31.5881 15.2263 30.7147 12.5171 29.4006C11.1635 28.7439 10.0608 27.9654 9.28754 27.1075C8.51506 26.2504 8.03904 25.2751 8.03904 24.249V19.0296ZM8.03904 11.2544L9.22305 12.3876C11.8646 14.9158 17.1662 16.6948 23.5511 16.6948C29.9371 16.6948 35.2397 14.9158 37.8812 12.3876L39.0652 11.2544V16.4727C39.0652 17.4988 38.5892 18.4741 37.8167 19.3312C37.0434 20.1891 35.9406 20.9676 34.5869 21.6243C31.8775 22.9384 28.0653 23.8118 23.5511 23.8118C19.0379 23.8118 15.2263 22.9384 12.5171 21.6242C11.1635 20.9676 10.0608 20.1891 9.28754 19.3312C8.51506 18.4741 8.03904 17.4988 8.03904 16.4727V11.2544ZM11.9139 3.14168C8.97706 4.65882 7.41484 6.64804 7.41484 8.69741V32.0253C7.41484 34.0747 8.97706 36.0639 11.9139 37.581C14.822 39.0833 18.9154 40.0227 23.5511 40.0227C28.1873 40.0227 32.2812 39.0833 35.1897 37.581C38.127 36.0639 39.6894 34.0746 39.6894 32.0253V8.69844C39.6894 6.64909 38.127 4.6596 35.1897 3.14219C32.2812 1.63966 28.1873 0.7 23.5511 0.7C18.9154 0.7 14.822 1.63941 11.9139 3.14168ZM9.43904 29.0543C12.4189 31.4159 17.5746 32.9474 23.5511 32.9474C29.5286 32.9474 34.6852 31.4159 37.6652 29.0543C37.914 28.8571 38.1476 28.6542 38.3652 28.4459V32.0263C38.3652 35.2322 32.4131 38.6654 23.5511 38.6654C14.6912 38.6654 8.73904 35.2322 8.73904 32.0263V28.4459C8.95669 28.6542 9.19028 28.8572 9.43904 29.0543ZM9.43904 21.277C12.4189 23.6385 17.5746 25.1701 23.5511 25.1701C29.5286 25.1701 34.6852 23.6385 37.6652 21.2769C37.914 21.0798 38.1476 20.8769 38.3652 20.6686V24.249C38.3652 27.4548 32.4131 30.8881 23.5511 30.8881C14.6912 30.8881 8.73904 27.4548 8.73904 24.249V20.6686C8.95669 20.8769 9.19028 21.0798 9.43904 21.277ZM9.43904 13.5017C12.4189 15.8633 17.5746 17.3948 23.5511 17.3948C29.5286 17.3948 34.6852 15.8633 37.6652 13.5017C37.914 13.3045 38.1476 13.1016 38.3652 12.8933V16.4727C38.3652 19.6785 32.4131 23.1118 23.5511 23.1118C14.6912 23.1118 8.73904 19.6785 8.73904 16.4727V12.8933C8.95669 13.1016 9.19028 13.3045 9.43904 13.5017ZM9.28754 11.5569C8.51506 10.6999 8.03904 9.72451 8.03904 8.69844C8.03904 7.67216 8.51501 6.69668 9.28753 5.83955C10.0608 4.98158 11.1635 4.20304 12.5171 3.5465C15.2263 2.23246 19.0379 1.35935 23.5511 1.35935C28.0648 1.35935 31.8769 2.23245 34.5865 3.54648C35.9403 4.20302 37.0431 4.98155 37.8165 5.8395C38.5891 6.69663 39.0652 7.67212 39.0652 8.69844C39.0652 9.72451 38.5892 10.6999 37.8167 11.5569C37.0434 12.4148 35.9406 13.1934 34.5869 13.85C31.8775 15.1642 28.0653 16.0375 23.5511 16.0375C19.0379 16.0375 15.2263 15.1642 12.5171 13.85C11.1635 13.1934 10.0608 12.4148 9.28754 11.5569ZM6.71484 8.69741C6.71484 3.82023 14.1103 0 23.5511 0C32.993 0 40.3894 3.82126 40.3894 8.69844V32.0253C40.3894 36.9025 32.993 40.7227 23.5511 40.7227C14.1103 40.7227 6.71484 36.9025 6.71484 32.0253V8.69741ZM8.73904 8.69844C8.73904 11.9043 14.6912 15.3375 23.5511 15.3375C32.4131 15.3375 38.3652 11.9043 38.3652 8.69844C38.3652 5.49158 32.412 2.05935 23.5511 2.05935C14.6912 2.05935 8.73904 5.49158 8.73904 8.69844Z" fill="#3D3D3D"/>
</svg>
