<svg width="18" height="14" viewBox="0 0 18 14" fill="none" xmlns="http://www.w3.org/2000/svg">
<path d="M16.6782 3.24108L8.77372 0.0460677C8.62175 -0.0153559 8.45186 -0.0153559 8.29988 0.0460677L0.395434 3.24108C0.156192 3.33778 -0.0003157 3.57016 4.78167e-07 3.82829C0.000316656 4.08639 0.157387 4.31838 0.396874 4.41452L8.30132 7.587C8.37689 7.61733 8.45684 7.63251 8.5368 7.63251C8.61676 7.63251 8.69672 7.61733 8.77228 7.587L16.6767 4.41452C16.9162 4.31841 17.0733 4.08639 17.0736 3.82829C17.0739 3.57019 16.9174 3.33778 16.6782 3.24108ZM8.5368 6.31847L2.32524 3.82544L8.5368 1.3147L14.7484 3.82544L8.5368 6.31847Z" fill="white"/>
<path d="M16.2302 9.97013L8.53699 12.6969L0.843754 9.97013C0.514578 9.85346 0.153152 10.0258 0.0364823 10.355C-0.0801522 10.6843 0.0921296 11.0458 0.421306 11.1625L8.32575 13.9641C8.39408 13.9883 8.46554 14.0004 8.53696 14.0004C8.60838 14.0004 8.67983 13.9883 8.74816 13.9641L16.6526 11.1625C16.9818 11.0458 17.1541 10.6843 17.0374 10.355C16.9208 10.0258 16.5594 9.85336 16.2302 9.97013Z" fill="white"/>
<path d="M16.2317 6.60043L8.537 9.30584L0.842247 6.60043C0.51272 6.48458 0.151785 6.65785 0.0359588 6.98742C-0.0798676 7.31696 0.0933627 7.67801 0.42282 7.79387L8.32727 10.573C8.39514 10.5969 8.46607 10.6088 8.53696 10.6088C8.60786 10.6088 8.67882 10.5969 8.74666 10.573L16.6511 7.79387C16.9806 7.67801 17.1538 7.31696 17.038 6.98742C16.9222 6.65788 16.5614 6.48454 16.2317 6.60043Z" fill="white"/>
</svg>
