<svg width="65" height="65" viewBox="0 0 65 65" fill="none" xmlns="http://www.w3.org/2000/svg">
<path d="M32.5 0C26.6178 0 21.18 1.44938 16.1865 4.34814C11.193 7.24691 7.24691 11.193 4.34814 16.1865C1.44938 21.18 0 26.6178 0 32.5C0 38.3822 1.44938 43.82 4.34814 48.8135C7.24691 53.807 11.193 57.7531 16.1865 60.6519C21.18 63.5506 26.6178 65 32.5 65C38.3822 65 43.82 63.5506 48.8135 60.6519C53.807 57.7531 57.7531 53.807 60.6519 48.8135C63.5506 43.82 65 38.3822 65 32.5C65 26.6178 63.5506 21.18 60.6519 16.1865C57.7531 11.193 53.807 7.24691 48.8135 4.34814C43.82 1.44938 38.3822 0 32.5 0ZM32.5 61.001C29.4108 61.001 26.4168 60.5249 23.5181 59.5728C20.6193 58.6206 18.0062 57.2559 15.6787 55.4785C13.3512 53.7012 11.3094 51.6488 9.55322 49.3213C7.79704 46.9938 6.44287 44.3807 5.49072 41.4819C4.53857 38.5832 4.0625 35.5892 4.0625 32.5C4.0625 28.6491 4.81364 24.9674 6.31592 21.4551C7.8182 17.9427 9.83887 14.917 12.3779 12.3779C14.917 9.83887 17.9427 7.8182 21.4551 6.31592C24.9674 4.81364 28.6491 4.0625 32.5 4.0625C36.3509 4.0625 40.0326 4.81364 43.5449 6.31592C47.0573 7.8182 50.083 9.83887 52.6221 12.3779C55.1611 14.917 57.1818 17.9427 58.6841 21.4551C60.1864 24.9674 60.9375 28.6491 60.9375 32.5C60.9375 36.3509 60.1864 40.0326 58.6841 43.5449C57.1818 47.0573 55.1611 50.0936 52.6221 52.6538C50.083 55.214 47.0573 57.2453 43.5449 58.7476C40.0326 60.2498 36.3509 61.001 32.5 61.001ZM45.4492 20.6299L26.4062 39.7998L17.8369 31.2305C17.4137 30.8073 16.9271 30.5957 16.377 30.5957C15.8268 30.5957 15.3402 30.8073 14.917 31.2305C14.8324 31.3151 14.7477 31.4315 14.6631 31.5796C14.5785 31.7277 14.515 31.8652 14.4727 31.9922C14.4303 32.1191 14.3986 32.2567 14.3774 32.4048C14.3563 32.5529 14.3563 32.701 14.3774 32.8491C14.3986 32.9972 14.4303 33.1453 14.4727 33.2935C14.515 33.4416 14.5785 33.5791 14.6631 33.7061L14.917 34.0869L25.0098 44.1162C25.3906 44.5394 25.8667 44.751 26.438 44.751C27.0093 44.751 27.4854 44.5394 27.8662 44.1162L28.1201 43.8623L48.3691 23.4863C48.75 23.1055 48.9404 22.6294 48.9404 22.0581C48.9404 21.4868 48.75 21.0107 48.3691 20.6299C47.6074 19.8682 46.7822 19.7624 45.8936 20.3125C45.7243 20.3971 45.5762 20.5029 45.4492 20.6299Z" fill="#00C165"/>
</svg>
