<svg width="176" height="353" viewBox="0 0 176 353" fill="none" xmlns="http://www.w3.org/2000/svg">
<path fill-rule="evenodd" clip-rule="evenodd" d="M165.5 1C164.852 1 164.21 1.02513 163.575 1.07446L163.498 0.0774682C164.159 0.0261376 164.826 0 165.5 0H167.454V1H165.5ZM175.27 1H171.362V0H175.27V1ZM159.778 1.67175C158.518 1.97302 157.297 2.37151 156.122 2.85888L155.739 1.93515C156.962 1.42775 158.234 1.01286 159.545 0.699198L159.778 1.67175ZM152.698 4.60685C151.601 5.28011 150.562 6.03728 149.589 6.86944L148.939 6.10934C149.952 5.24341 151.033 4.45543 152.174 3.7547L152.698 4.60685ZM146.869 9.58852C146.037 10.5619 145.28 11.6013 144.607 12.6977L143.755 12.1744C144.455 11.0333 145.243 9.95164 146.109 8.93872L146.869 9.58852ZM142.859 16.1218C142.372 17.2971 141.973 18.5185 141.672 19.7777L140.699 19.545C141.013 18.234 141.428 16.9624 141.935 15.7388L142.859 16.1218ZM141.074 23.5753C141.025 24.2103 141 24.8522 141 25.5V27.4375H140V25.5C140 24.8263 140.026 24.1586 140.077 23.4979L141.074 23.5753ZM141 31.3125V35.1875H140V31.3125H141ZM141 39.0625V42.9375H140V39.0625H141ZM141 46.8125V50.6875H140V46.8125H141ZM141 54.5625V58.4375H140V54.5625H141ZM141 62.3125V66.1875H140V62.3125H141ZM141 70.0625V72C141 72.6737 140.974 73.3414 140.923 74.0021L139.926 73.9247C139.975 73.2897 140 72.6478 140 72V70.0625H141ZM140.301 77.955C139.987 79.266 139.572 80.5376 139.065 81.7612L138.141 81.3782C138.628 80.2029 139.027 78.9815 139.328 77.7223L140.301 77.955ZM137.245 85.3256C136.545 86.4667 135.757 87.5484 134.891 88.5613L134.131 87.9115C134.963 86.9381 135.72 85.8987 136.393 84.8023L137.245 85.3256ZM132.061 91.3907C131.048 92.2566 129.967 93.0446 128.826 93.7453L128.302 92.8932C129.399 92.2199 130.438 91.4627 131.411 90.6306L132.061 91.3907ZM125.261 95.5648C124.038 96.0723 122.766 96.4871 121.455 96.8008L121.222 95.8282C122.481 95.527 123.703 95.1285 124.878 94.6411L125.261 95.5648ZM117.502 97.4225C116.841 97.4739 116.174 97.5 115.5 97.5H113.438V96.5H115.5C116.148 96.5 116.79 96.4749 117.425 96.4255L117.502 97.4225ZM2.0625 97.5H0V96.5H2.0625V97.5ZM10.3125 97.5H6.1875V96.5H10.3125V97.5ZM18.5625 97.5H14.4375V96.5H18.5625V97.5ZM26.8125 97.5H22.6875V96.5H26.8125V97.5ZM35.0625 97.5H30.9375V96.5H35.0625V97.5ZM43.3125 97.5H39.1875V96.5H43.3125V97.5ZM51.5625 97.5H47.4375V96.5H51.5625V97.5ZM59.8125 97.5H55.6875V96.5H59.8125V97.5ZM68.0625 97.5H63.9375V96.5H68.0625V97.5ZM76.3125 97.5H72.1875V96.5H76.3125V97.5ZM84.5625 97.5H80.4375V96.5H84.5625V97.5ZM92.8125 97.5H88.6875V96.5H92.8125V97.5ZM101.062 97.5H96.9375V96.5H101.062V97.5ZM109.312 97.5H105.188V96.5H109.312V97.5Z" fill="#9A9A9A"/>
<path fill-rule="evenodd" clip-rule="evenodd" d="M165.5 351.5C164.852 351.5 164.21 351.475 163.575 351.426L163.498 352.423C164.159 352.474 164.826 352.5 165.5 352.5H167.425V351.5H165.5ZM175.125 351.5H171.275V352.5H175.125V351.5ZM159.778 350.828C158.518 350.527 157.297 350.128 156.122 349.641L155.739 350.565C156.962 351.072 158.234 351.487 159.545 351.801L159.778 350.828ZM152.698 347.893C151.601 347.22 150.562 346.463 149.589 345.631L148.939 346.391C149.952 347.257 151.033 348.045 152.174 348.745L152.698 347.893ZM146.869 342.911C146.037 341.938 145.28 340.899 144.607 339.802L143.755 340.326C144.455 341.467 145.243 342.548 146.109 343.561L146.869 342.911ZM142.859 336.378C142.372 335.203 141.973 333.982 141.672 332.722L140.699 332.955C141.013 334.266 141.428 335.538 141.935 336.761L142.859 336.378ZM141.074 328.925C141.025 328.29 141 327.648 141 327V324.922H140V327C140 327.674 140.026 328.341 140.077 329.002L141.074 328.925ZM141 320.766V316.609H140V320.766H141ZM141 312.453V308.297H140V312.453H141ZM141 304.141V299.984H140V304.141H141ZM141 295.828V291.672H140V295.828H141ZM141 287.516V283.359H140V287.516H141ZM141 279.203V275.047H140V279.203H141ZM141 270.891V266.734H140V270.891H141ZM141 262.578V260.5C141 259.826 140.974 259.159 140.923 258.498L139.926 258.575C139.975 259.21 140 259.852 140 260.5V262.578H141ZM140.301 254.545C139.987 253.234 139.572 251.962 139.065 250.739L138.141 251.122C138.628 252.297 139.027 253.519 139.328 254.778L140.301 254.545ZM137.245 247.174C136.545 246.033 135.757 244.952 134.891 243.939L134.131 244.589C134.963 245.562 135.72 246.601 136.393 247.698L137.245 247.174ZM132.061 241.109C131.048 240.243 129.967 239.455 128.826 238.755L128.302 239.607C129.399 240.28 130.438 241.037 131.411 241.869L132.061 241.109ZM125.261 236.935C124.038 236.428 122.766 236.013 121.455 235.699L121.222 236.672C122.481 236.973 123.703 237.372 124.878 237.859L125.261 236.935ZM117.502 235.077C116.841 235.026 116.174 235 115.5 235H113.438V236H115.5C116.148 236 116.79 236.025 117.425 236.074L117.502 235.077ZM2.0625 235H0V236H2.0625V235ZM10.3125 235H6.1875V236H10.3125V235ZM18.5625 235H14.4375V236H18.5625V235ZM26.8125 235H22.6875V236H26.8125V235ZM35.0625 235H30.9375V236H35.0625V235ZM43.3125 235H39.1875V236H43.3125V235ZM51.5625 235H47.4375V236H51.5625V235ZM59.8125 235H55.6875V236H59.8125V235ZM68.0625 235H63.9375V236H68.0625V235ZM76.3125 235H72.1875V236H76.3125V235ZM84.5625 235H80.4375V236H84.5625V235ZM92.8125 235H88.6875V236H92.8125V235ZM101.062 235H96.9375V236H101.062V235ZM109.312 235H105.188V236H109.312V235Z" fill="#9A9A9A"/>
</svg>
