<svg width="30" height="30" viewBox="0 0 30 30" fill="none" xmlns="http://www.w3.org/2000/svg">
<path d="M14.95 30C23.2071 30 29.9 23.2843 29.9 15C29.9 6.71567 23.2071 0 14.95 0C6.69295 0 0 6.71567 0 15C0 23.2843 6.69295 30 14.95 30ZM15.7806 5.25C17.157 5.25 18.2722 6.36933 18.2722 7.75C18.2722 9.13067 17.157 10.25 15.7806 10.25C14.4042 10.25 13.2889 9.13067 13.2889 7.75C13.2889 6.36933 14.4042 5.25 15.7806 5.25ZM14.95 11.4167C17.4417 11.4167 18.046 12.8917 17.7669 14.7113L16.6111 22.25C16.6111 22.25 17.4417 22.25 19.1028 21.4167C19.1028 21.4167 18.2722 24.75 14.95 24.75C12.4583 24.75 11.854 23.275 12.1331 21.4553L13.2889 13.9167C13.2889 13.9167 12.4583 13.9167 10.7972 14.75C10.7972 14.75 11.6278 11.4167 14.95 11.4167Z" fill="white"/>
</svg>
