<svg width="147" height="32" viewBox="0 0 147 32" fill="none" xmlns="http://www.w3.org/2000/svg">
<path d="M15.4087 14.6761H6.05217V14.6413C4.17391 14.6413 2.67826 13.1457 2.67826 11.3022C2.67826 9.45869 4.17391 7.92826 6.05217 7.92826H21.4609V5.25H6.05217C2.71304 5.25 0 7.96304 0 11.3022C0 14.6413 2.71304 17.3543 6.05217 17.3543H15.4087C17.287 17.3543 18.7826 18.85 18.7826 20.6935C18.7826 22.5717 17.287 24.0674 15.4087 24.0674H0V26.7457H15.4087C18.7826 26.7457 21.4957 24.0326 21.4957 20.6935C21.4957 17.3543 18.7826 14.6761 15.4087 14.6761Z" fill="white"/>
<path d="M30.7386 12.4152C26.7734 12.4152 23.5734 15.6152 23.5734 19.5804C23.5734 23.5109 26.7734 26.7457 30.7386 26.7457C34.7038 26.7457 37.9038 23.5109 37.9038 19.5804C37.9038 15.6152 34.7038 12.4152 30.7386 12.4152ZM30.7386 24.0326C28.269 24.0326 26.2516 22.05 26.2516 19.5804C26.2516 17.1109 28.269 15.0935 30.7386 15.0935C33.2082 15.0935 35.2255 17.1109 35.2255 19.5804C35.2255 22.05 33.2082 24.0326 30.7386 24.0326Z" fill="white"/>
<path d="M47.1448 26.7457C50.1709 26.7457 52.7448 24.9022 53.7883 22.2935H50.7274C49.9274 23.3717 48.6057 24.0674 47.1448 24.0674C44.6753 24.0674 42.6927 22.05 42.6927 19.5804C42.6927 17.1109 44.6753 15.1283 47.1448 15.1283C48.6057 15.1283 49.9274 15.8239 50.7274 16.9022H53.7883C52.7448 14.2935 50.1709 12.4152 47.1448 12.4152C43.2144 12.4152 39.9796 15.65 39.9796 19.5804C39.9796 23.5457 43.2144 26.7457 47.1448 26.7457Z" fill="white"/>
<path d="M55.8764 26.7457H58.5894V12.4152H55.8764V26.7457ZM58.5894 7.02391H55.8764V9.70217H58.5894V7.02391Z" fill="white"/>
<path d="M67.831 12.4152C63.8658 12.4152 60.6658 15.6152 60.6658 19.5804C60.6658 23.5457 63.8658 26.7457 67.831 26.7457C69.5353 26.7457 71.0658 26.1543 72.3179 25.1804V26.7457H74.9962V19.5804C74.9962 15.6152 71.7962 12.4152 67.831 12.4152ZM67.831 24.0674C65.3614 24.0674 63.344 22.05 63.344 19.5804C63.344 17.1109 65.3614 15.0935 67.831 15.0935C70.3005 15.0935 72.3179 17.1109 72.3179 19.5804C72.3179 22.05 70.3005 24.0674 67.831 24.0674Z" fill="white"/>
<path d="M77.072 26.7457H79.7851V5.25H77.072V26.7457Z" fill="white"/>
<path fill-rule="evenodd" clip-rule="evenodd" d="M93.5659 0C89.7235 0 86.6094 3.11413 86.6094 6.95652V25.0435C86.6094 28.8859 89.7235 32 93.5659 32H139.479C143.321 32 146.435 28.8859 146.435 25.0435V6.95652C146.435 3.11413 143.321 0 139.479 0H93.5659ZM94.0319 19.269C94.0319 15.3043 97.2317 12.1033 101.198 12.1033C105.162 12.1033 108.362 15.3043 108.362 19.269V26.4348H105.684V24.8696C104.431 25.8424 102.901 26.4348 101.198 26.4348C97.2317 26.4348 94.0319 23.2337 94.0319 19.269ZM96.7099 19.269C96.7099 21.7391 98.7276 23.7554 101.198 23.7554C103.666 23.7554 105.684 21.7391 105.684 19.269C105.684 16.7989 103.666 14.7826 101.198 14.7826C98.7276 14.7826 96.7099 16.7989 96.7099 19.269ZM124.768 19.269C124.768 23.2337 121.569 26.4348 117.604 26.4348C113.638 26.4348 110.438 23.2337 110.438 19.269C110.438 15.3043 113.638 12.1033 117.604 12.1033C119.308 12.1033 120.873 12.6957 122.09 13.6685V4.94022H124.768V19.269ZM122.09 19.269C122.09 16.7989 120.073 14.7826 117.604 14.7826C115.134 14.7826 113.116 16.7989 113.116 19.269C113.116 21.7391 115.134 23.7554 117.604 23.7554C120.073 23.7554 122.09 21.7391 122.09 19.269ZM129.306 12.1033L133.585 22.8179L137.862 12.1033H140.749L135.046 26.4348H133.585H132.158L126.419 12.1033H129.306Z" fill="white"/>
</svg>
