<svg width="725" height="725" viewBox="0 0 725 725" fill="none" xmlns="http://www.w3.org/2000/svg">
<path fill-rule="evenodd" clip-rule="evenodd" d="M362.5 625C507.475 625 625 507.475 625 362.5C625 217.525 507.475 100 362.5 100C217.525 100 100 217.525 100 362.5C100 507.475 217.525 625 362.5 625ZM362.5 725C562.703 725 725 562.703 725 362.5C725 162.297 562.703 0 362.5 0C162.297 0 0 162.297 0 362.5C0 562.703 162.297 725 362.5 725Z" fill="#2D2D43"/>
<path d="M91.2891 114H119.71V191H91.2891V114Z" fill="#FFD600"/>
<path d="M144 138.289L144 166.71L67 166.71L67 138.289L144 138.289Z" fill="#FFD600"/>
</svg>
