<svg width="35" height="35" viewBox="0 0 35 35" fill="none" xmlns="http://www.w3.org/2000/svg">
<circle cx="17.5" cy="17.5" r="17" stroke="white"/>
<path fill-rule="evenodd" clip-rule="evenodd" d="M17.5013 7C14.3948 7 11.8647 9.54503 11.8647 12.6734C11.8647 14.1888 12.3045 16.0842 13.2143 17.6589C13.4842 18.1259 13.8013 18.5665 14.1638 18.956C14.1347 19.1823 14.0892 19.363 14.0386 19.4776C13.9776 19.6153 13.936 19.6425 13.8952 19.6582C13.326 19.8746 11.7906 19.9995 10.3415 20.4556C8.89131 20.9122 7.40401 21.8132 7.01067 23.6542C6.99304 23.7367 6.99731 23.8225 7.02306 23.9029C7.04881 23.9832 7.09513 24.0553 7.15735 24.1119C12.8574 29.296 22.1426 29.296 27.8426 24.1119C27.9049 24.0553 27.9512 23.9832 27.9769 23.9029C28.0027 23.8225 28.007 23.7367 27.9893 23.6542C27.596 21.8132 26.1088 20.9122 24.6589 20.4556C23.2096 19.9993 21.6738 19.8743 21.1067 19.6581C21.1065 19.658 21.1064 19.6579 21.1062 19.6578C21.1062 19.6578 21.106 19.6578 21.106 19.6578C21.0296 19.6283 20.9834 19.5904 20.9199 19.4659C20.8687 19.3655 20.8214 19.2093 20.7878 19.0088C21.1709 18.6066 21.5041 18.1469 21.786 17.6589C22.6955 16.0842 23.1354 14.1888 23.1354 12.6734C23.1354 9.5453 20.6078 7.00001 17.5013 7.00001V7Z" fill="white"/>
</svg>
